<mxfile host="app.diagrams.net" modified="2024-01-09T13:09:23.248Z" agent="Mozilla/5.0 (Macintosh; Intel Mac OS X 10_15_7) AppleWebKit/605.1.15 (KHTML, like Gecko) Version/17.2 Safari/605.1.15" etag="88zXKpCZNdCjR32zQPjQ" version="22.1.17" type="github">
  <diagram name="Page-1" id="e_JMkv63ZfSiVQM9Ydst">
    <mxGraphModel dx="820" dy="623" grid="1" gridSize="10" guides="1" tooltips="1" connect="1" arrows="1" fold="1" page="1" pageScale="1" pageWidth="827" pageHeight="1169" math="0" shadow="0">
      <root>
        <mxCell id="0" />
        <mxCell id="1" parent="0" />
        <mxCell id="g2Mc58VrfWElOGzlkAhz-1" value="Book ID" style="rounded=0;whiteSpace=wrap;html=1;" vertex="1" parent="1">
          <mxGeometry x="90" y="200" width="100" height="50" as="geometry" />
        </mxCell>
        <mxCell id="g2Mc58VrfWElOGzlkAhz-2" value="Author" style="rounded=0;whiteSpace=wrap;html=1;" vertex="1" parent="1">
          <mxGeometry x="190" y="200" width="100" height="50" as="geometry" />
        </mxCell>
        <mxCell id="g2Mc58VrfWElOGzlkAhz-3" value="Title" style="rounded=0;whiteSpace=wrap;html=1;" vertex="1" parent="1">
          <mxGeometry x="290" y="200" width="100" height="50" as="geometry" />
        </mxCell>
        <mxCell id="g2Mc58VrfWElOGzlkAhz-4" value="Price" style="rounded=0;whiteSpace=wrap;html=1;" vertex="1" parent="1">
          <mxGeometry x="390" y="200" width="100" height="50" as="geometry" />
        </mxCell>
        <mxCell id="g2Mc58VrfWElOGzlkAhz-5" value="Availability" style="rounded=0;whiteSpace=wrap;html=1;" vertex="1" parent="1">
          <mxGeometry x="490" y="200" width="100" height="50" as="geometry" />
        </mxCell>
        <mxCell id="g2Mc58VrfWElOGzlkAhz-6" value="ISBN" style="rounded=0;whiteSpace=wrap;html=1;fontStyle=4" vertex="1" parent="1">
          <mxGeometry x="590" y="200" width="100" height="50" as="geometry" />
        </mxCell>
        <mxCell id="g2Mc58VrfWElOGzlkAhz-7" value="Publisher_ID" style="rounded=0;whiteSpace=wrap;html=1;fontStyle=4" vertex="1" parent="1">
          <mxGeometry x="90" y="390" width="100" height="50" as="geometry" />
        </mxCell>
        <mxCell id="g2Mc58VrfWElOGzlkAhz-8" value="Book" style="text;html=1;strokeColor=none;fillColor=none;align=center;verticalAlign=middle;whiteSpace=wrap;rounded=0;fontSize=16;fontStyle=1" vertex="1" parent="1">
          <mxGeometry x="90" y="170" width="60" height="30" as="geometry" />
        </mxCell>
        <mxCell id="g2Mc58VrfWElOGzlkAhz-10" value="Publisher" style="text;html=1;strokeColor=none;fillColor=none;align=center;verticalAlign=middle;whiteSpace=wrap;rounded=0;fontSize=16;fontStyle=1" vertex="1" parent="1">
          <mxGeometry x="90" y="360" width="90" height="30" as="geometry" />
        </mxCell>
        <mxCell id="g2Mc58VrfWElOGzlkAhz-11" value="Member" style="text;html=1;strokeColor=none;fillColor=none;align=center;verticalAlign=middle;whiteSpace=wrap;rounded=0;fontSize=16;fontStyle=1" vertex="1" parent="1">
          <mxGeometry x="90" y="530" width="90" height="30" as="geometry" />
        </mxCell>
        <mxCell id="g2Mc58VrfWElOGzlkAhz-12" value="PublisherName" style="rounded=0;whiteSpace=wrap;html=1;" vertex="1" parent="1">
          <mxGeometry x="190" y="390" width="100" height="50" as="geometry" />
        </mxCell>
        <mxCell id="g2Mc58VrfWElOGzlkAhz-13" value="PublisherAddress" style="rounded=0;whiteSpace=wrap;html=1;" vertex="1" parent="1">
          <mxGeometry x="290" y="390" width="100" height="50" as="geometry" />
        </mxCell>
        <mxCell id="g2Mc58VrfWElOGzlkAhz-20" style="edgeStyle=orthogonalEdgeStyle;rounded=0;orthogonalLoop=1;jettySize=auto;html=1;" edge="1" parent="1" source="g2Mc58VrfWElOGzlkAhz-14" target="g2Mc58VrfWElOGzlkAhz-6">
          <mxGeometry relative="1" as="geometry">
            <Array as="points">
              <mxPoint x="440" y="370" />
              <mxPoint x="620" y="370" />
            </Array>
          </mxGeometry>
        </mxCell>
        <mxCell id="g2Mc58VrfWElOGzlkAhz-14" value="ISBN" style="rounded=0;whiteSpace=wrap;html=1;" vertex="1" parent="1">
          <mxGeometry x="390" y="390" width="100" height="50" as="geometry" />
        </mxCell>
        <mxCell id="g2Mc58VrfWElOGzlkAhz-15" value="memb_ID" style="rounded=0;whiteSpace=wrap;html=1;fontStyle=4" vertex="1" parent="1">
          <mxGeometry x="90" y="560" width="100" height="50" as="geometry" />
        </mxCell>
        <mxCell id="g2Mc58VrfWElOGzlkAhz-16" value="member_Name" style="rounded=0;whiteSpace=wrap;html=1;" vertex="1" parent="1">
          <mxGeometry x="190" y="560" width="100" height="50" as="geometry" />
        </mxCell>
        <mxCell id="g2Mc58VrfWElOGzlkAhz-17" value="address" style="rounded=0;whiteSpace=wrap;html=1;" vertex="1" parent="1">
          <mxGeometry x="290" y="560" width="100" height="50" as="geometry" />
        </mxCell>
        <mxCell id="g2Mc58VrfWElOGzlkAhz-18" value="memb_type" style="rounded=0;whiteSpace=wrap;html=1;" vertex="1" parent="1">
          <mxGeometry x="390" y="560" width="100" height="50" as="geometry" />
        </mxCell>
        <mxCell id="g2Mc58VrfWElOGzlkAhz-19" value="mem_join_date" style="rounded=0;whiteSpace=wrap;html=1;" vertex="1" parent="1">
          <mxGeometry x="490" y="560" width="100" height="50" as="geometry" />
        </mxCell>
        <mxCell id="g2Mc58VrfWElOGzlkAhz-21" value="Issue/Loan Date" style="rounded=0;whiteSpace=wrap;html=1;" vertex="1" parent="1">
          <mxGeometry x="90" y="40" width="100" height="50" as="geometry" />
        </mxCell>
        <mxCell id="g2Mc58VrfWElOGzlkAhz-22" value="Due Date" style="rounded=0;whiteSpace=wrap;html=1;" vertex="1" parent="1">
          <mxGeometry x="190" y="40" width="100" height="50" as="geometry" />
        </mxCell>
        <mxCell id="g2Mc58VrfWElOGzlkAhz-23" value="Return Date" style="rounded=0;whiteSpace=wrap;html=1;" vertex="1" parent="1">
          <mxGeometry x="290" y="40" width="100" height="50" as="geometry" />
        </mxCell>
        <mxCell id="g2Mc58VrfWElOGzlkAhz-25" style="edgeStyle=orthogonalEdgeStyle;rounded=0;orthogonalLoop=1;jettySize=auto;html=1;" edge="1" parent="1" source="g2Mc58VrfWElOGzlkAhz-24" target="g2Mc58VrfWElOGzlkAhz-6">
          <mxGeometry relative="1" as="geometry">
            <mxPoint x="680" y="370" as="targetPoint" />
            <Array as="points">
              <mxPoint x="640" y="405" />
              <mxPoint x="660" y="405" />
            </Array>
          </mxGeometry>
        </mxCell>
        <mxCell id="g2Mc58VrfWElOGzlkAhz-24" value="ISBN" style="rounded=0;whiteSpace=wrap;html=1;" vertex="1" parent="1">
          <mxGeometry x="590" y="560" width="100" height="50" as="geometry" />
        </mxCell>
        <mxCell id="g2Mc58VrfWElOGzlkAhz-26" value="The table is normalised according the 1NF, because each table contains all atomic data item, no repeating groups and designated primary key.&lt;br&gt;" style="text;html=1;strokeColor=none;fillColor=none;align=center;verticalAlign=middle;whiteSpace=wrap;rounded=0;" vertex="1" parent="1">
          <mxGeometry x="80" y="680" width="550" height="140" as="geometry" />
        </mxCell>
      </root>
    </mxGraphModel>
  </diagram>
</mxfile>
